<?xml version="1.0" encoding="utf-8"?>
<!-- Generator: Adobe Illustrator 21.1.0, SVG Export Plug-In . SVG Version: 6.00 Build 0)  -->
<svg version="1.1" id="Layer_1" xmlns="http://www.w3.org/2000/svg" xmlns:xlink="http://www.w3.org/1999/xlink" x="0px" y="0px"
	 width="257px" height="43px" viewBox="0 0 257 43" style="enable-background:new 0 0 257 43;" xml:space="preserve">
<g id="logo_x5F_hero_x5F_medium">
	<g>
		<g>
			<g>
				<path d="M154.31,9.99c1.14-1.42,1.91-3.34,1.71-5.29c-1.67,0.08-3.7,1.1-4.88,2.52c-1.06,1.22-1.99,3.21-1.75,5.08
					C151.27,12.47,153.13,11.37,154.31,9.99"/>
				<path d="M156,12.67c-2.72-0.16-5.03,1.54-6.32,1.54c-1.3,0-3.28-1.46-5.43-1.42c-2.8,0.04-5.39,1.62-6.81,4.14
					c-2.92,5.03-0.77,12.49,2.07,16.59c1.38,2.03,3.04,4.26,5.23,4.18c2.07-0.08,2.88-1.34,5.39-1.34s3.24,1.34,5.43,1.3
					c2.27-0.04,3.69-2.03,5.07-4.06c1.58-2.31,2.23-4.54,2.27-4.66c-0.04-0.04-4.38-1.7-4.42-6.69c-0.04-4.18,3.4-6.16,3.57-6.29
					C160.09,13.08,157.05,12.76,156,12.67"/>
			</g>
			<g>
				<path d="M166.85,22.22c0-9.64,5.44-15.71,13.94-15.71c6.89,0,12.1,4.24,12.9,10.58h-4.68c-0.84-3.9-4.09-6.45-8.22-6.45
					c-5.52,0-9.11,4.53-9.11,11.58c0,7.11,3.54,11.6,9.13,11.6c4.24,0,7.25-2.17,8.2-5.84h4.7c-1.16,6.28-5.92,9.97-12.92,9.97
					C172.25,37.95,166.85,31.92,166.85,22.22z"/>
				<path d="M195.89,31.14c0-3.88,2.97-6.26,8.24-6.56l6.07-0.36v-1.71c0-2.47-1.67-3.94-4.45-3.94c-2.64,0-4.28,1.26-4.68,3.25
					h-4.3c0.25-4.01,3.67-6.96,9.15-6.96c5.38,0,8.81,2.85,8.81,7.3v15.29h-4.36V33.8h-0.11c-1.29,2.47-4.09,4.03-7,4.03
					C198.93,37.83,195.89,35.13,195.89,31.14z M210.21,29.14v-1.75l-5.46,0.34c-2.72,0.19-4.26,1.39-4.26,3.29
					c0,1.94,1.6,3.2,4.05,3.2C207.72,34.22,210.21,32.03,210.21,29.14z"/>
				<path d="M219.15,15.27h4.34v3.77h0.11c0.74-2.59,2.72-4.13,5.33-4.13c0.65,0,1.22,0.11,1.56,0.17v4.24
					c-0.36-0.15-1.16-0.25-2.05-0.25c-2.93,0-4.74,1.96-4.74,5.1v13.28h-4.55L219.15,15.27L219.15,15.27z"/>
				<path d="M231.34,26.36c0-7,3.71-11.45,9.28-11.45c3.18,0,5.71,1.6,6.96,4.05h0.08V7.02h4.58v30.42h-4.43v-3.77h-0.08
					c-1.31,2.53-3.84,4.15-7.06,4.15C235.05,37.83,231.34,33.36,231.34,26.36z M236,26.36c0,4.68,2.26,7.61,5.86,7.61
					c3.5,0,5.84-2.97,5.84-7.61c0-4.6-2.34-7.61-5.84-7.61C238.25,18.74,236,21.7,236,26.36z"/>
			</g>
		</g>
		<g style="enable-background:new    ;">
			<path d="M15.36,37.14V10.52H5.92V6.41h23.65v4.11h-9.42v26.63H15.36z"/>
			<path d="M33.07,6.41h4.57v12.14h0.11c1.35-2.68,3.67-4.07,7.11-4.07c4.94,0,7.88,3.28,7.88,8.35v14.31H48.1v-13.4
				c0-3.3-1.67-5.3-4.91-5.3c-3.42,0-5.51,2.34-5.51,5.9v12.8h-4.61V6.41z"/>
			<path d="M56.96,8.83c0-1.49,1.2-2.64,2.67-2.64c1.5,0,2.69,1.15,2.69,2.64c0,1.45-1.2,2.62-2.69,2.62
				C58.16,11.45,56.96,10.28,56.96,8.83z M57.33,14.73h4.61v22.41h-4.61V14.73z"/>
			<path d="M75.06,14.48c4.98,0,8.54,2.75,8.65,6.71h-4.34c-0.19-1.98-1.88-3.2-4.44-3.2c-2.5,0-4.17,1.15-4.17,2.9
				c0,1.34,1.11,2.24,3.44,2.81l3.78,0.87c4.53,1.09,6.24,2.75,6.24,6.03c0,4.05-3.85,6.82-9.34,6.82c-5.3,0-8.87-2.71-9.21-6.79
				h4.57c0.32,2.15,2.05,3.3,4.85,3.3c2.76,0,4.49-1.13,4.49-2.92c0-1.38-0.85-2.13-3.2-2.73l-4.02-0.98
				c-4.06-0.98-6.11-3.05-6.11-6.16C66.26,17.18,69.82,14.48,75.06,14.48z"/>
			<path d="M96.46,8.83c0-1.49,1.2-2.64,2.67-2.64c1.5,0,2.69,1.15,2.69,2.64c0,1.45-1.2,2.62-2.69,2.62
				C97.65,11.45,96.46,10.28,96.46,8.83z M96.82,14.73h4.61v22.41h-4.61V14.73z"/>
			<path d="M114.55,14.48c4.98,0,8.54,2.75,8.65,6.71h-4.34c-0.19-1.98-1.88-3.2-4.44-3.2c-2.5,0-4.17,1.15-4.17,2.9
				c0,1.34,1.11,2.24,3.44,2.81l3.78,0.87c4.53,1.09,6.24,2.75,6.24,6.03c0,4.05-3.85,6.82-9.34,6.82c-5.3,0-8.87-2.71-9.21-6.79
				h4.57c0.32,2.15,2.05,3.3,4.85,3.3c2.76,0,4.49-1.13,4.49-2.92c0-1.38-0.85-2.13-3.2-2.73l-4.02-0.98
				c-4.06-0.98-6.11-3.05-6.11-6.16C105.75,17.18,109.31,14.48,114.55,14.48z"/>
		</g>
	</g>
</g>
</svg>
